<svg xmlns="http://www.w3.org/2000/svg" viewBox="0 0 1125 459"><path d="M666 252c0 59.6 48.4 108 108 108 16.4 0 31.9-3.7 45.9-10.2 5.3 5.8 13.5 10.2 26.1 10.2 36 0 36-36 36-36v-72c0-59.6-48.4-108-108-108s-108 48.4-108 108zm144 0c0 19.9-16.1 36-36 36s-36-16.1-36-36 16.1-36 36-36 36 16.1 36 36z"/><path d="M1125 189s0-45-36-45c-11.5 0-19.4 4.6-24.7 10.9-14.3-7-30.3-10.9-47.3-10.9-59.6 0-108 48.4-108 108s48.4 108 108 108c12.6 0 24.6-2.2 35.9-6.1-1.5 18.5-17 33.1-35.9 33.1H36s-36 0-36 36 36 36 36 36h981c59.6 0 108-48.4 108-108V189zm-108 99c-19.9 0-36-16.1-36-36s16.1-36 36-36 36 16.1 36 36-16.1 36-36 36z"/><path d="M180 360c34.4 0 66.5-9.6 93.8-26.3l14.7 14.7s25.5 25.5 50.9 0c25.5-25.5 0-50.9 0-50.9l-12.9-12.9C347.6 255.1 360 219 360 180 360 80.6 279.4 0 180 0S0 80.6 0 180s80.6 180 180 180zm0-288c59.6 0 108 48.4 108 108 0 19.1-4.9 36.9-13.6 52.5l-36.9-36.9s-25.5-25.5-50.9 0c-25.5 25.5 0 50.9 0 50.9l33.7 33.7c-12.5 5-26.1 7.8-40.3 7.8-59.6 0-108-48.4-108-108S120.4 72 180 72zM423 117h144v207s0 36 36 36 36-36 36-36V117h450s36 0 36-36-36-36-36-36H639v-9s0-36-36-36-36 36-36 36v9H423s-36 0-36 36 36 36 36 36z"/><path d="M423 360c36 0 36-36 36-36v-72c0-19.9 16.1-36 36-36h9s36 0 36-36-36-36-36-36h-9c-16.4 0-31.9 3.7-45.9 10.2-5.3-5.8-13.5-10.2-26.1-10.2-36 0-36 36-36 36v144s0 36 36 36z"/></svg>